# xmcd CD database file generated by freedbAccess_ocx
#
# Track frame offsets:
#       150
#       13287
#       26787
#       38337
#       50862
#       61362
#       72380
#       84687
#       96537
#       108012
#       121662
#       132012
#       145062
#       155037
#       167787
#       179787
#       192407
#       205887
#       217812
#       231462
#       242862
#       253512
#
# Disc length: 3552 seconds
#
# Revision: 0
# Processed by: cddbd v1.4PL0 Copyright (c) Steve Scherf et al.
# Submitted via: CDnGo 1.95
#
DISCID=480dde16
DTITLE=The McGuire Sisters - The Very Best Of
DYEAR=1991
DGENRE=Country
TTITLE0=Something's Gotta Give
TTITLE1=Sincerely
TTITLE2=Sugartime
TTITLE3=Picnic
TTITLE4=Love And Marriage
TTITLE5=True Love
TTITLE6=Volare
TTITLE7=He
TTITLE8=Around The World
TTITLE9=I'll Be Seeing You
TTITLE10=Muskrat Ramble
TTITLE11=I'm In The Mood For Love
TTITLE12=No More
TTITLE13=It May Sound Silly
TTITLE14=Heart
TTITLE15=Melody Of Love
TTITLE16=May You Always
TTITLE17=Hi-Lili-Hi-Lo
TTITLE18=Little Things Mean A Lot
TTITLE19=Does Your Heart Beat For Me?
TTITLE20=Answer Me, My Love
TTITLE21=Goodnight,Sweetheart,Goodnight
EXTD=
EXTT0=
EXTT1=
EXTT2=
EXTT3=
EXTT4=
EXTT5=
EXTT6=
EXTT7=
EXTT8=
EXTT9=
EXTT10=
EXTT11=
EXTT12=
EXTT13=
EXTT14=
EXTT15=
EXTT16=
EXTT17=
EXTT18=
EXTT19=
EXTT20=
EXTT21=
PLAYORDER=
